<?xml version="1.0" standalone="no"?>
<!DOCTYPE svg PUBLIC "-//W3C//DTD SVG 20010904//EN"
 "http://www.w3.org/TR/2001/REC-SVG-20010904/DTD/svg10.dtd">
<svg version="1.0" xmlns="http://www.w3.org/2000/svg"
 width="461.000000pt" height="373.000000pt" viewBox="0 0 461.000000 373.000000"
 preserveAspectRatio="xMidYMid meet">
<metadata>
Created by potrace 1.16, written by Peter Selinger 2001-2019
</metadata>
<g transform="translate(0.000000,373.000000) scale(0.100000,-0.100000)"
fill="#000000" stroke="none">
<path d="M2327 3515 c-55 -19 -85 -51 -102 -109 -39 -131 34 -236 166 -236
121 0 199 105 169 229 -14 59 -58 105 -115 120 -51 14 -71 13 -118 -4z m114
-35 c48 -26 68 -146 36 -222 -12 -29 -24 -39 -54 -48 -81 -24 -133 30 -133
138 0 66 17 114 47 131 23 13 79 14 104 1z"/>
<path d="M1946 3485 c-52 -18 -75 -43 -83 -88 -5 -32 -1 -41 28 -70 25 -25 48
-37 79 -42 59 -9 90 -30 90 -59 0 -28 -15 -42 -53 -51 -38 -10 -74 1 -82 25
-3 11 -13 20 -21 20 -12 0 -13 -8 -8 -37 4 -21 12 -41 18 -45 21 -14 90 -8
131 12 46 22 68 55 68 99 0 52 -26 78 -90 91 -78 16 -105 34 -101 68 6 51 98
69 113 22 3 -11 13 -20 21 -20 12 0 13 8 8 38 -4 20 -12 40 -18 44 -17 12 -57
9 -100 -7z"/>
<path d="M2716 3492 c-4 -3 1 -13 10 -23 15 -17 14 -28 -16 -150 -26 -105 -37
-133 -52 -137 -33 -8 -14 -25 43 -38 30 -7 62 -13 72 -14 24 0 21 17 -4 25
-19 6 -21 12 -15 52 3 25 8 48 10 52 3 4 27 3 53 -2 38 -8 55 -7 78 4 41 20
67 60 67 104 0 47 -29 79 -85 94 -115 30 -156 38 -161 33z m139 -66 c31 -13
35 -19 35 -53 0 -57 -23 -83 -71 -83 -44 0 -45 4 -28 78 19 84 14 79 64 58z"/>
<path d="M3113 3387 c-3 -6 -1 -13 5 -15 19 -6 15 -18 -45 -149 -49 -104 -61
-123 -80 -123 -41 0 -24 -20 40 -49 67 -30 89 -30 61 0 -16 17 -16 21 0 61 29
77 27 76 104 39 l70 -34 -24 -51 c-18 -39 -29 -52 -49 -54 -41 -5 -29 -21 38
-51 66 -30 89 -30 62 -1 -16 18 -14 26 40 144 44 96 62 126 76 126 35 0 19 20
-41 50 -41 21 -60 26 -60 17 0 -7 5 -18 12 -25 9 -9 6 -24 -12 -64 -13 -29
-25 -54 -26 -56 -5 -8 -134 64 -134 75 0 7 10 33 22 57 16 33 27 45 41 43 41
-4 24 19 -33 45 -41 19 -62 23 -67 15z"/>
<path d="M1558 3378 c-53 -14 -115 -71 -129 -119 -24 -77 22 -188 91 -224 83
-43 216 9 249 98 34 90 -28 222 -117 247 -42 11 -44 11 -94 -2z m79 -53 c54
-38 95 -153 73 -206 -14 -32 -55 -59 -90 -59 -66 0 -130 89 -130 179 0 43 4
56 26 76 31 29 87 33 121 10z"/>
<path d="M3547 3174 c-3 -3 -1 -14 6 -24 9 -16 -1 -37 -66 -134 -54 -82 -83
-116 -96 -116 -38 0 -30 -18 24 -54 30 -20 57 -36 61 -36 3 0 3 13 -1 29 -5
24 6 47 70 145 63 97 80 116 96 111 37 -12 19 20 -29 50 -60 38 -57 37 -65 29z"/>
<path d="M1107 3137 c-48 -32 -57 -52 -25 -52 23 0 172 -235 158 -249 -14 -14
-12 -26 3 -26 9 0 186 108 205 125 2 1 -5 19 -14 39 -22 45 -49 50 -41 6 6
-26 2 -33 -39 -61 -55 -37 -47 -43 -138 101 -42 67 -62 108 -56 114 12 12 13
36 3 35 -5 0 -30 -15 -56 -32z"/>
<path d="M892 2967 c-46 -47 -52 -62 -23 -54 26 6 27 5 124 -107 69 -80 84
-103 76 -117 -23 -44 3 -39 60 13 56 52 61 62 27 56 -25 -5 -37 6 -117 96 -78
87 -90 105 -85 129 8 40 -13 34 -62 -16z"/>
<path d="M3730 2944 c-71 -31 -130 -111 -130 -177 0 -48 38 -114 85 -147 52
-37 77 -43 100 -27 23 17 12 37 -21 37 -64 0 -112 72 -94 140 30 112 151 167
219 99 33 -32 37 -49 21 -79 -17 -33 10 -35 41 -3 l30 29 -30 41 c-33 46 -71
75 -120 91 -44 15 -58 15 -101 -4z"/>
<path d="M2106 2845 c-21 -7 -53 -27 -70 -44 -26 -25 -40 -31 -77 -31 -59 0
-107 -31 -134 -87 -14 -28 -31 -47 -56 -58 -37 -17 -79 -76 -79 -110 0 -10
-18 -37 -39 -60 -43 -47 -57 -93 -48 -152 8 -44 31 -71 83 -94 22 -10 49 -27
59 -39 23 -25 84 -27 114 -2 20 15 20 19 7 37 -13 18 -16 18 -40 5 -23 -12
-29 -12 -43 3 -24 24 -20 83 8 113 21 22 21 26 7 40 -12 13 -20 14 -37 5 -24
-13 -51 -61 -51 -91 0 -25 -12 -26 -33 -2 -11 11 -17 36 -17 62 0 39 5 48 45
86 37 34 45 48 45 77 0 26 7 41 26 56 31 24 58 17 50 -13 -3 -11 -9 -31 -12
-43 -4 -15 0 -24 15 -33 25 -13 41 -6 41 18 1 21 28 56 57 71 35 18 69 13 102
-15 35 -29 68 -29 63 1 -6 31 -42 64 -84 77 -36 11 -66 6 -125 -18 -16 -7 -17
39 -2 68 11 21 77 53 88 43 3 -4 6 -19 6 -33 0 -22 5 -27 24 -27 20 0 27 7 34
35 24 95 138 140 218 87 53 -35 69 -78 69 -181 l0 -88 -27 5 c-16 3 -36 9 -45
12 -11 4 -20 0 -28 -14 -14 -28 -8 -37 32 -45 47 -9 68 -33 68 -76 0 -112
-141 -124 -159 -14 -5 30 -11 40 -29 42 -12 2 -22 -1 -22 -7 0 -5 -21 -19 -47
-31 -26 -12 -58 -31 -71 -43 -23 -22 -24 -22 -38 -3 -17 24 -18 56 -3 90 9 19
9 29 0 40 -18 21 -37 10 -56 -31 -21 -44 -15 -91 17 -136 18 -25 22 -42 20
-83 -3 -36 1 -54 12 -63 28 -23 43 -6 48 55 4 50 9 61 41 91 41 37 71 42 86
14 9 -15 6 -22 -14 -35 -54 -35 -74 -131 -40 -195 20 -39 42 -49 63 -28 14 15
14 18 -4 38 -28 31 -26 101 4 131 19 19 33 23 90 23 37 0 75 4 85 9 15 7 17 2
17 -48 0 -60 -4 -64 -38 -40 -12 8 -32 14 -45 12 -35 -5 -32 -33 7 -56 58 -35
71 -64 71 -167 0 -106 -8 -140 -35 -155 -17 -9 -27 -6 -61 20 -56 45 -66 68
-36 79 34 13 79 70 75 95 -5 34 -40 31 -63 -6 -42 -68 -123 -59 -156 17 -15
34 -26 45 -42 45 -12 0 -41 9 -64 19 -45 21 -53 19 -53 -15 0 -19 10 -27 48
-40 36 -13 53 -27 73 -59 18 -28 39 -47 62 -55 21 -8 41 -25 52 -47 24 -44
110 -113 142 -113 37 0 81 27 100 63 16 29 18 70 18 462 0 237 -3 442 -8 457
-11 40 -66 98 -112 119 -47 22 -96 23 -149 4z"/>
<path d="M2530 2833 c-41 -21 -61 -41 -80 -73 l-25 -45 0 -440 c0 -402 2 -443
18 -472 21 -39 63 -63 111 -63 31 0 42 8 96 73 34 39 76 80 95 90 19 9 45 35
57 57 13 22 29 40 36 40 23 0 69 29 76 46 12 30 -9 37 -56 20 -23 -8 -51 -15
-62 -13 -13 1 -22 -8 -30 -30 -31 -91 -121 -109 -164 -33 -11 20 -24 30 -37
28 -46 -7 -21 -73 40 -110 l34 -20 -20 -28 c-12 -15 -34 -37 -50 -49 -58 -43
-89 8 -89 143 0 95 19 143 68 166 21 10 32 22 32 37 0 33 -17 37 -56 14 -19
-12 -37 -21 -40 -21 -2 0 -4 24 -4 54 l0 54 36 -13 c25 -8 49 -9 75 -4 84 19
137 -68 89 -146 -18 -29 -19 -34 -4 -46 34 -28 78 34 76 108 0 46 -31 106 -63
124 -16 8 -17 13 -8 32 7 12 13 24 15 26 1 1 20 -7 42 -19 50 -28 72 -66 72
-124 0 -34 4 -48 16 -53 27 -10 46 26 41 76 -4 37 0 51 19 76 31 41 39 84 25
128 -14 42 -33 60 -55 51 -18 -7 -22 -39 -6 -49 13 -8 13 -61 0 -86 -10 -19
-12 -18 -48 10 -20 16 -50 33 -67 37 -16 4 -37 17 -46 28 -14 17 -19 18 -33 7
-9 -7 -16 -27 -16 -43 0 -17 -10 -39 -25 -53 -53 -54 -135 -15 -135 65 0 35 4
43 33 60 17 11 40 20 50 20 25 0 33 28 14 47 -15 15 -20 15 -57 0 l-40 -15 0
94 c0 104 11 138 56 173 54 43 147 37 193 -13 12 -13 29 -41 36 -63 10 -29 18
-38 37 -38 18 0 23 5 23 27 0 37 8 41 49 24 26 -11 41 -26 51 -50 26 -61 21
-68 -27 -46 -24 11 -56 20 -71 20 -40 0 -101 -34 -115 -65 -23 -50 11 -61 60
-20 61 51 134 21 162 -67 6 -21 16 -22 39 -5 16 11 17 16 3 54 -8 23 -12 44
-9 47 26 25 83 -29 83 -78 0 -27 7 -39 30 -56 38 -27 60 -69 60 -113 0 -31
-14 -57 -32 -57 -4 0 -16 20 -27 44 -20 47 -49 70 -75 60 -22 -8 -20 -30 4
-54 25 -25 36 -68 23 -89 -7 -10 -25 -16 -51 -16 -23 0 -47 -6 -54 -13 -11
-11 -9 -17 11 -33 34 -28 92 -25 121 5 12 14 35 28 50 31 102 22 119 189 27
262 -14 10 -27 32 -31 49 -10 47 -44 94 -76 108 -19 8 -38 28 -53 57 -29 59
-76 89 -137 89 -32 0 -50 5 -53 14 -10 26 -94 67 -149 73 -45 4 -61 1 -108
-24z"/>
<path d="M697 2769 c-38 -50 -42 -78 -8 -59 15 7 29 2 65 -26 l46 -35 -46 -60
c-26 -32 -50 -59 -54 -59 -3 0 -25 14 -48 31 -34 25 -41 35 -36 54 11 43 -14
35 -55 -19 -22 -29 -41 -56 -41 -60 0 -4 12 -5 28 -2 23 6 41 -5 127 -75 74
-60 100 -88 100 -104 0 -41 12 -37 54 16 48 60 51 74 15 65 -19 -5 -35 1 -67
26 -23 17 -44 33 -46 35 -2 1 18 31 45 66 l49 64 48 -40 c40 -33 47 -44 43
-64 -10 -38 15 -27 56 25 32 40 45 71 28 65 -3 -1 -12 -4 -20 -7 -10 -4 -54
24 -123 79 -82 65 -106 90 -104 106 4 38 -17 29 -56 -22z"/>
<path d="M2183 2701 c-51 -24 -65 -48 -61 -109 3 -43 5 -47 28 -47 22 0 25 4
22 32 -4 40 34 83 73 83 20 0 25 5 25 24 0 21 -17 36 -38 36 -4 0 -26 -9 -49
-19z"/>
<path d="M2542 2711 c-8 -5 -12 -19 -10 -32 2 -19 10 -25 35 -27 38 -4 63 -33
63 -74 0 -18 6 -29 21 -33 61 -20 40 109 -24 149 -30 19 -70 27 -85 17z"/>
<path d="M4005 2558 c-94 -26 -151 -37 -172 -33 -18 3 -33 3 -33 0 0 -3 12
-23 26 -45 28 -42 60 -55 51 -21 -3 15 4 21 34 31 22 7 41 11 42 9 2 -2 18
-25 36 -51 l33 -47 -22 -31 c-16 -23 -26 -28 -33 -21 -14 14 -37 14 -37 0 0
-15 70 -104 82 -104 6 0 12 11 12 25 1 20 75 143 170 284 12 18 -9 47 -33 45
-9 -1 -79 -19 -156 -41z m105 -12 c0 -9 -63 -106 -69 -106 -8 0 -55 70 -50 73
5 4 101 35 112 36 4 1 7 -1 7 -3z"/>
<path d="M436 2368 c-14 -13 -46 -60 -71 -106 -45 -83 -51 -120 -14 -86 18 16
24 15 122 -36 128 -67 142 -76 142 -98 0 -36 21 -20 52 40 19 36 29 66 24 71
-5 5 -15 -1 -24 -13 l-16 -23 -45 27 -44 26 21 49 c18 44 19 55 9 90 -22 72
-106 103 -156 59z m95 -76 c30 -27 31 -29 19 -69 l-13 -42 -69 35 c-64 32 -68
36 -57 57 30 57 70 64 120 19z"/>
<path d="M3412 2348 c-7 -7 -12 -17 -12 -22 0 -6 46 -49 101 -95 l101 -84 -83
-24 c-304 -87 -532 -194 -726 -340 -137 -103 -270 -248 -340 -371 l-30 -53
-59 93 c-187 296 -529 520 -1003 660 -61 18 -111 35 -111 38 0 3 43 41 95 85
94 79 94 80 75 99 -19 19 -20 19 -65 -16 -105 -82 -225 -190 -220 -197 2 -5
25 -14 50 -20 25 -6 45 -14 45 -17 0 -4 -54 -62 -120 -131 -66 -68 -120 -128
-120 -133 0 -11 38 -17 160 -25 315 -21 602 -95 833 -212 95 -48 254 -155 270
-180 3 -4 -34 11 -81 34 -112 53 -216 87 -372 121 -118 25 -139 27 -390 26
-146 0 -291 -5 -322 -11 -32 -5 -58 -8 -58 -6 0 2 29 38 65 80 36 42 65 79 65
83 0 5 -12 11 -27 15 -19 4 -31 1 -43 -12 -60 -65 -200 -232 -200 -238 0 -4
25 -5 55 -1 30 3 55 4 55 1 0 -3 -34 -53 -75 -112 -41 -58 -75 -109 -75 -114
0 -14 34 -11 212 21 269 47 426 63 628 62 213 0 341 -18 531 -76 159 -48 246
-50 380 -8 356 112 719 115 1256 10 l118 -23 -681 -3 -681 -2 -41 -39 c-86
-82 -233 -78 -305 9 l-26 30 -740 0 c-730 0 -740 0 -751 -20 -8 -14 -8 -26 0
-40 11 -20 21 -20 733 -20 l722 0 25 -27 c42 -44 106 -67 190 -67 88 -1 153
20 195 64 l29 30 723 0 c712 0 722 0 733 20 18 34 -4 60 -53 61 l-42 1 -81
123 -81 123 58 -5 c33 -3 59 -2 59 3 0 5 -47 63 -105 129 -84 97 -108 119
-127 117 -13 -2 -26 -7 -31 -11 -4 -4 22 -41 58 -82 35 -41 65 -77 65 -80 0
-3 -28 -1 -62 4 -35 6 -178 11 -318 11 -207 1 -274 -3 -355 -18 -140 -26 -281
-69 -393 -121 -117 -55 -103 -34 39 61 114 76 210 122 367 174 184 61 346 90
710 126 28 3 52 10 52 16 0 5 -57 67 -126 138 l-125 128 50 12 c28 7 51 15 51
19 0 16 -260 241 -278 241 -5 0 -13 -5 -20 -12z m-1979 -319 c355 -120 617
-281 795 -489 86 -100 96 -124 31 -68 -59 50 -199 143 -267 177 -193 98 -467
169 -772 201 -58 7 -106 12 -107 14 -3 2 188 206 193 206 2 0 59 -19 127 -41z
m2220 -72 l87 -95 -67 -7 c-214 -21 -440 -65 -598 -116 -178 -59 -374 -166
-482 -263 -29 -26 -53 -45 -53 -41 0 16 116 148 188 215 121 113 321 237 505
312 124 50 303 106 317 98 8 -4 54 -51 103 -103z m-2013 -437 c191 -20 355
-64 521 -141 49 -23 88 -43 87 -45 -2 -1 -43 9 -93 22 -282 75 -653 76 -1062
0 -68 -12 -123 -20 -123 -18 0 8 102 152 117 163 31 26 373 37 553 19z m2098
-6 c21 -6 139 -160 130 -170 -3 -2 -75 7 -161 20 -248 39 -387 49 -614 43
-208 -5 -296 -18 -435 -61 -27 -8 -48 -13 -48 -11 0 9 117 63 210 98 104 39
251 73 375 87 87 9 506 5 543 -6z"/>
<path d="M4339 2335 c-1 -6 -2 -19 -3 -29 -1 -15 -32 -34 -129 -78 -118 -54
-130 -58 -146 -44 -10 9 -20 13 -23 10 -5 -5 92 -227 105 -240 2 -3 21 3 41
12 43 21 49 47 9 42 -25 -3 -31 3 -56 48 l-27 52 126 61 c115 56 129 60 144
46 28 -25 29 -6 3 53 -26 59 -42 83 -44 67z"/>
<path d="M920 2013 c-46 -9 -165 -70 -228 -118 -75 -57 -108 -98 -121 -151
l-9 -39 -1 34 -1 34 -26 -24 c-45 -42 -136 -169 -176 -246 -32 -63 -38 -84
-39 -141 -1 -58 -2 -62 -9 -29 -4 20 -9 40 -12 42 -3 3 -15 -21 -28 -52 -32
-82 -36 -181 -11 -268 11 -38 18 -71 16 -73 -2 -2 -17 20 -34 50 -37 64 -41
39 -7 -45 22 -53 23 -57 5 -41 -27 24 -24 13 15 -58 31 -55 35 -59 40 -37 77
359 232 715 385 889 17 19 6 -1 -25 -45 -70 -98 -178 -321 -232 -475 -48 -138
-102 -347 -137 -529 -14 -73 -28 -138 -31 -142 -8 -13 -33 -163 -28 -168 8 -8
33 34 48 79 9 25 24 107 35 182 22 149 39 198 78 223 13 9 32 24 41 33 10 9
30 27 46 40 32 24 15 29 -24 7 -51 -29 -42 -14 17 29 59 43 103 92 103 115 0
15 -12 14 -38 -5 -13 -9 -25 -14 -28 -12 -2 3 13 17 35 32 22 15 51 45 65 67
25 38 80 188 72 196 -2 3 -18 -3 -35 -11 -47 -25 -48 -19 -3 14 52 37 66 59
96 146 13 38 33 89 45 113 12 23 21 44 19 46 -2 2 -22 -5 -46 -15 -58 -26 -53
-18 12 19 47 27 57 38 76 89 13 31 45 98 71 148 50 93 55 105 42 103 -5 -1
-19 -4 -33 -6z m-180 -207 c0 -2 -8 -10 -17 -17 -16 -13 -17 -12 -4 4 13 16
21 21 21 13z"/>
<path d="M1811 896 c-106 -35 -212 -145 -215 -223 l-1 -38 50 2 c76 4 88 10
115 54 37 60 98 93 174 93 67 -1 106 -16 148 -61 64 -67 80 -185 37 -264 -72
-130 -264 -148 -346 -30 -23 32 -37 42 -78 51 -90 21 -84 16 -79 68 6 52 -6
78 -30 69 -18 -7 -23 -94 -7 -125 5 -9 17 -39 27 -67 49 -138 226 -226 394
-195 242 44 362 277 255 496 -30 61 -84 113 -157 151 -45 23 -68 27 -148 30
-63 2 -110 -2 -139 -11z"/>
<path d="M3811 899 c-121 -36 -187 -148 -147 -254 29 -76 78 -102 288 -155 55
-14 88 -42 88 -74 0 -78 -176 -94 -296 -26 l-52 29 -25 -57 -25 -57 20 -18
c39 -33 156 -62 253 -61 134 0 216 42 256 129 35 76 19 149 -45 202 -35 29
-67 40 -214 79 -108 29 -140 74 -86 125 23 22 34 24 107 23 59 -1 97 -7 133
-22 l52 -21 21 56 c12 31 20 57 19 58 -54 45 -254 70 -347 44z"/>
<path d="M810 755 l0 -145 80 0 c69 0 80 2 80 18 1 16 1 16 14 0 11 -15 29
-18 96 -18 66 0 81 3 77 14 -3 8 -52 73 -109 145 l-103 130 -67 1 -68 0 0
-145z"/>
<path d="M1280 755 l0 -146 68 3 67 3 3 143 3 142 -71 0 -70 0 0 -145z"/>
<path d="M2340 840 l0 -60 105 0 105 0 2 -272 3 -273 73 -3 72 -3 0 276 0 275
110 0 110 0 0 60 0 60 -290 0 -290 0 0 -60z"/>
<path d="M3030 565 l0 -335 255 0 255 0 0 60 0 60 -182 2 -183 3 -3 78 -3 77
161 0 160 0 0 60 0 60 -160 0 -160 0 0 75 0 75 180 0 180 0 0 60 0 60 -250 0
-250 0 0 -335z"/>
<path d="M1835 664 c-38 -14 -97 -31 -130 -37 l-60 -13 -3 -48 c-3 -53 5 -65
48 -66 14 -1 70 -16 125 -36 l100 -34 104 53 c58 30 107 60 109 67 7 21 -150
10 -172 -13 -22 -21 -55 -19 -70 5 -25 40 37 76 74 43 14 -12 34 -15 91 -13
41 2 74 7 74 12 0 12 -182 106 -203 105 -9 0 -48 -12 -87 -25z"/>
<path d="M674 600 c-5 -5 -68 -12 -139 -15 -220 -8 -269 -26 -108 -39 76 -6
123 -11 263 -28 23 -3 25 0 25 42 0 46 -18 63 -41 40z"/>
<path d="M736 594 c-12 -30 -6 -75 10 -81 9 -3 19 -1 23 6 6 9 105 11 394 9
l387 -3 0 39 0 39 -384 -7 c-259 -4 -387 -3 -391 4 -9 15 -32 12 -39 -6z"/>
<path d="M867 513 l-58 -4 3 -137 3 -137 73 -3 73 -3 -3 143 c-3 119 -6 143
-18 144 -8 0 -41 -1 -73 -3z"/>
<path d="M1098 483 c11 -16 60 -77 109 -138 l88 -110 63 -3 62 -3 0 141 0 140
-70 0 c-58 0 -70 -3 -70 -17 0 -15 -1 -15 -18 0 -14 13 -38 17 -101 17 l-82 0
19 -27z"/>
</g>
</svg>
